<?xml version="1.0" encoding="iso-8859-1"?>
<!-- Uploaded to: SVG Repo, www.svgrepo.com, Generator: SVG Repo Mixer Tools -->
<!DOCTYPE svg PUBLIC "-//W3C//DTD SVG 1.1//EN" "http://www.w3.org/Graphics/SVG/1.1/DTD/svg11.dtd">
<svg fill="#000000" version="1.1" id="Capa_1" xmlns="http://www.w3.org/2000/svg" xmlns:xlink="http://www.w3.org/1999/xlink"
	 width="800px" height="800px" viewBox="0 0 247.498 247.498"
	 xml:space="preserve">
<g>
	<path d="M124.606,49.075c0,0-2.377-6.333-5.303-14.141c-2.928-7.812-17.176-14.137-31.814-14.137H37.117
		c-14.641,0-28.889,6.325-31.814,14.137L0,49.075H124.606z"/>
	<path d="M0,200.188c0,14.645,11.871,26.513,26.512,26.513h194.475c14.639,0,26.512-11.868,26.512-26.513V86.192
		c0-14.641-11.873-26.512-26.512-26.512H0V200.188z M85.553,156.537c4.137-0.869,8.2-0.678,11.788,0.373v-43.856
		c0-3,2.11-5.605,5.049-6.224l53.047-11.19l0.011-0.005c0.196-0.041,0.414-0.041,0.621-0.062c0.228-0.021,0.445-0.07,0.673-0.07
		c0,0,0,0,0.011,0c0.093,0,0.171,0.021,0.259,0.025c0.331,0.011,0.663,0.034,0.984,0.102c0.201,0.041,0.383,0.111,0.579,0.171
		c0.197,0.062,0.404,0.106,0.601,0.184c0.207,0.091,0.404,0.207,0.606,0.318c0.155,0.085,0.315,0.155,0.471,0.256
		c0.182,0.117,0.337,0.269,0.508,0.407c0.155,0.121,0.311,0.228,0.445,0.362c0.146,0.143,0.27,0.311,0.404,0.471
		c0.124,0.153,0.269,0.295,0.383,0.471c0.135,0.197,0.238,0.414,0.342,0.621c0.088,0.153,0.176,0.295,0.254,0.456
		c0.14,0.323,0.238,0.668,0.326,1.012c0.01,0.065,0.041,0.122,0.062,0.186v0.006c0.042,0.223,0.052,0.46,0.073,0.688
		c0.021,0.202,0.062,0.404,0.062,0.604c0,0.005,0,0.005,0,0.01v58.148c0,0.367-0.041,0.74-0.113,1.103
		c-0.135,8.196-7.208,15.866-17.233,17.999c-11.319,2.413-22.113-3.2-24.096-12.521c-1.983-9.331,5.6-18.838,16.93-21.251
		c4.137-0.87,8.202-0.674,11.785,0.373v-36.001l-40.317,8.502v52.985c0,0.373-0.042,0.74-0.106,1.098
		c-0.143,8.202-7.216,15.876-17.233,18.01c-11.33,2.407-22.121-3.2-24.104-12.521C66.64,168.452,74.223,158.945,85.553,156.537z"/>
</g>
</svg>
